<?xml version="1.0" encoding="UTF-8"?>
<!DOCTYPE svg PUBLIC "-//W3C//DTD SVG 1.1//EN" "http://www.w3.org/Graphics/SVG/1.1/DTD/svg11.dtd">
<svg version="1.2" width="146.05mm" height="106.7mm" viewBox="1762 1379 14605 10670" preserveAspectRatio="xMidYMid" fill-rule="evenodd" stroke-width="28.222" stroke-linejoin="round" xmlns="http://www.w3.org/2000/svg" xmlns:ooo="http://xml.openoffice.org/svg/export" xmlns:xlink="http://www.w3.org/1999/xlink" xmlns:presentation="http://sun.com/xmlns/staroffice/presentation" xmlns:smil="http://www.w3.org/2001/SMIL20/" xmlns:anim="urn:oasis:names:tc:opendocument:xmlns:animation:1.0" xml:space="preserve">
 <defs class="ClipPathGroup">
  <clipPath id="presentation_clip_path" clipPathUnits="userSpaceOnUse">
   <rect x="1762" y="1379" width="14605" height="10670"/>
  </clipPath>
 </defs>
 <defs class="TextShapeIndex">
  <g ooo:slide="id1" ooo:id-list="id3 id4 id5 id6 id7 id8 id9 id10 id11 id12 id13 id14 id15 id16 id17 id18 id19 id20 id21 id22 id23 id24 id25 id26 id27 id28 id29 id30 id31 id32 id33 id34 id35 id36 id37 id38 id39 id40 id41 id42 id43 id44 id45 id46 id47 id48 id49 id50 id51 id52 id53 id54 id55 id56 id57 id58 id59 id60 id61 id62 id63 id64 id65 id66 id67 id68 id69 id70 id71 id72 id73 id74 id75 id76 id77 id78 id79 id80 id81 id82"/>
 </defs>
 <defs class="EmbeddedBulletChars">
  <g id="bullet-char-template(57356)" transform="scale(0.00048828125,-0.00048828125)">
   <path d="M 580,1141 L 1163,571 580,0 -4,571 580,1141 Z"/>
  </g>
  <g id="bullet-char-template(57354)" transform="scale(0.00048828125,-0.00048828125)">
   <path d="M 8,1128 L 1137,1128 1137,0 8,0 8,1128 Z"/>
  </g>
  <g id="bullet-char-template(10146)" transform="scale(0.00048828125,-0.00048828125)">
   <path d="M 174,0 L 602,739 174,1481 1456,739 174,0 Z M 1358,739 L 309,1346 659,739 1358,739 Z"/>
  </g>
  <g id="bullet-char-template(10132)" transform="scale(0.00048828125,-0.00048828125)">
   <path d="M 2015,739 L 1276,0 717,0 1260,543 174,543 174,936 1260,936 717,1481 1274,1481 2015,739 Z"/>
  </g>
  <g id="bullet-char-template(10007)" transform="scale(0.00048828125,-0.00048828125)">
   <path d="M 0,-2 C -7,14 -16,27 -25,37 L 356,567 C 262,823 215,952 215,954 215,979 228,992 255,992 264,992 276,990 289,987 310,991 331,999 354,1012 L 381,999 492,748 772,1049 836,1024 860,1049 C 881,1039 901,1025 922,1006 886,937 835,863 770,784 769,783 710,716 594,584 L 774,223 C 774,196 753,168 711,139 L 727,119 C 717,90 699,76 672,76 641,76 570,178 457,381 L 164,-76 C 142,-110 111,-127 72,-127 30,-127 9,-110 8,-76 1,-67 -2,-52 -2,-32 -2,-23 -1,-13 0,-2 Z"/>
  </g>
  <g id="bullet-char-template(10004)" transform="scale(0.00048828125,-0.00048828125)">
   <path d="M 285,-33 C 182,-33 111,30 74,156 52,228 41,333 41,471 41,549 55,616 82,672 116,743 169,778 240,778 293,778 328,747 346,684 L 369,508 C 377,444 397,411 428,410 L 1163,1116 C 1174,1127 1196,1133 1229,1133 1271,1133 1292,1118 1292,1087 L 1292,965 C 1292,929 1282,901 1262,881 L 442,47 C 390,-6 338,-33 285,-33 Z"/>
  </g>
  <g id="bullet-char-template(9679)" transform="scale(0.00048828125,-0.00048828125)">
   <path d="M 813,0 C 632,0 489,54 383,161 276,268 223,411 223,592 223,773 276,916 383,1023 489,1130 632,1184 813,1184 992,1184 1136,1130 1245,1023 1353,916 1407,772 1407,592 1407,412 1353,268 1245,161 1136,54 992,0 813,0 Z"/>
  </g>
  <g id="bullet-char-template(8226)" transform="scale(0.00048828125,-0.00048828125)">
   <path d="M 346,457 C 273,457 209,483 155,535 101,586 74,649 74,723 74,796 101,859 155,911 209,963 273,989 346,989 419,989 480,963 531,910 582,859 608,796 608,723 608,648 583,586 532,535 482,483 420,457 346,457 Z"/>
  </g>
  <g id="bullet-char-template(8211)" transform="scale(0.00048828125,-0.00048828125)">
   <path d="M -4,459 L 1135,459 1135,606 -4,606 -4,459 Z"/>
  </g>
 </defs>
 <defs class="TextEmbeddedBitmaps"/>
 <g class="SlideGroup">
  <g>
   <g id="id1" class="Slide" clip-path="url(#presentation_clip_path)">
    <g class="Page">
     <g class="com.sun.star.drawing.CustomShape">
      <g id="id3">
       <rect class="BoundingBox" stroke="none" fill="none" x="1887" y="2141" width="1146" height="1146"/>
       <path fill="rgb(114,159,207)" stroke="none" d="M 2460,3285 L 1888,3285 1888,2142 3031,2142 3031,3285 2460,3285 Z"/>
       <path fill="none" stroke="rgb(52,101,164)" d="M 2460,3285 L 1888,3285 1888,2142 3031,2142 3031,3285 2460,3285 Z"/>
      </g>
     </g>
     <g class="com.sun.star.drawing.CustomShape">
      <g id="id4">
       <rect class="BoundingBox" stroke="none" fill="none" x="6714" y="1380" width="1019" height="1273"/>
       <path fill="rgb(114,159,207)" stroke="none" d="M 7223,2651 L 6715,2651 6715,1381 7731,1381 7731,2651 7223,2651 Z"/>
       <path fill="none" stroke="rgb(52,101,164)" d="M 7223,2651 L 6715,2651 6715,1381 7731,1381 7731,2651 7223,2651 Z"/>
      </g>
     </g>
     <g class="com.sun.star.drawing.CustomShape">
      <g id="id5">
       <rect class="BoundingBox" stroke="none" fill="none" x="4682" y="6968" width="1527" height="1273"/>
       <path fill="rgb(114,159,207)" stroke="none" d="M 5445,8239 L 4683,8239 4683,6969 6207,6969 6207,8239 5445,8239 Z"/>
       <path fill="none" stroke="rgb(52,101,164)" d="M 5445,8239 L 4683,8239 4683,6969 6207,6969 6207,8239 5445,8239 Z"/>
      </g>
     </g>
     <g class="com.sun.star.drawing.CustomShape">
      <g id="id6">
       <rect class="BoundingBox" stroke="none" fill="none" x="11286" y="8873" width="1273" height="1400"/>
       <path fill="rgb(114,159,207)" stroke="none" d="M 11922,8874 L 12557,8874 12557,10271 11287,10271 11287,8874 11922,8874 Z"/>
       <path fill="none" stroke="rgb(52,101,164)" d="M 11922,8874 L 12557,8874 12557,10271 11287,10271 11287,8874 11922,8874 Z"/>
      </g>
     </g>
     <g class="com.sun.star.drawing.CustomShape">
      <g id="id7">
       <rect class="BoundingBox" stroke="none" fill="none" x="12809" y="5189" width="1146" height="1146"/>
       <path fill="rgb(114,159,207)" stroke="none" d="M 13382,6333 L 12810,6333 12810,5190 13953,5190 13953,6333 13382,6333 Z"/>
       <path fill="none" stroke="rgb(52,101,164)" d="M 13382,6333 L 12810,6333 12810,5190 13953,5190 13953,6333 13382,6333 Z"/>
      </g>
     </g>
     <g class="com.sun.star.drawing.CustomShape">
      <g id="id8">
       <rect class="BoundingBox" stroke="none" fill="none" x="6714" y="1380" width="1019" height="1273"/>
       <path fill="rgb(114,159,207)" stroke="none" d="M 7223,2651 L 6715,2651 6715,1381 7731,1381 7731,2651 7223,2651 Z"/>
       <path fill="none" stroke="rgb(52,101,164)" d="M 7223,2651 L 6715,2651 6715,1381 7731,1381 7731,2651 7223,2651 Z"/>
      </g>
     </g>
     <g class="com.sun.star.drawing.CustomShape">
      <g id="id9">
       <rect class="BoundingBox" stroke="none" fill="none" x="1761" y="4936" width="1527" height="1273"/>
       <path fill="rgb(114,159,207)" stroke="none" d="M 2524,6207 L 1762,6207 1762,4937 3286,4937 3286,6207 2524,6207 Z"/>
       <path fill="none" stroke="rgb(52,101,164)" d="M 2524,6207 L 1762,6207 1762,4937 3286,4937 3286,6207 2524,6207 Z"/>
      </g>
     </g>
     <g class="com.sun.star.drawing.CustomShape">
      <g id="id10">
       <rect class="BoundingBox" stroke="none" fill="none" x="12683" y="10904" width="1273" height="1146"/>
       <path fill="rgb(114,159,207)" stroke="none" d="M 13319,12048 L 12684,12048 12684,10905 13954,10905 13954,12048 13319,12048 Z"/>
       <path fill="none" stroke="rgb(52,101,164)" d="M 13319,12048 L 12684,12048 12684,10905 13954,10905 13954,12048 13319,12048 Z"/>
      </g>
     </g>
     <g class="com.sun.star.drawing.CustomShape">
      <g id="id11">
       <rect class="BoundingBox" stroke="none" fill="none" x="4427" y="1379" width="1146" height="1146"/>
       <path fill="rgb(114,159,207)" stroke="none" d="M 5000,2523 L 4428,2523 4428,1380 5571,1380 5571,2523 5000,2523 Z"/>
       <path fill="none" stroke="rgb(52,101,164)" d="M 5000,2523 L 4428,2523 4428,1380 5571,1380 5571,2523 5000,2523 Z"/>
      </g>
     </g>
     <g class="com.sun.star.drawing.CustomShape">
      <g id="id12">
       <rect class="BoundingBox" stroke="none" fill="none" x="6714" y="1380" width="1019" height="1273"/>
       <path fill="rgb(114,159,207)" stroke="none" d="M 7223,2651 L 6715,2651 6715,1381 7731,1381 7731,2651 7223,2651 Z"/>
       <path fill="none" stroke="rgb(52,101,164)" d="M 7223,2651 L 6715,2651 6715,1381 7731,1381 7731,2651 7223,2651 Z"/>
      </g>
     </g>
     <g class="com.sun.star.drawing.CustomShape">
      <g id="id13">
       <rect class="BoundingBox" stroke="none" fill="none" x="11286" y="2395" width="1527" height="1400"/>
       <path fill="rgb(114,159,207)" stroke="none" d="M 12049,3793 L 11287,3793 11287,2396 12811,2396 12811,3793 12049,3793 Z"/>
       <path fill="none" stroke="rgb(52,101,164)" d="M 12049,3793 L 11287,3793 11287,2396 12811,2396 12811,3793 12049,3793 Z"/>
      </g>
     </g>
     <g class="com.sun.star.drawing.CustomShape">
      <g id="id14">
       <rect class="BoundingBox" stroke="none" fill="none" x="10397" y="5824" width="1273" height="1146"/>
       <path fill="rgb(114,159,207)" stroke="none" d="M 11033,6968 L 10398,6968 10398,5825 11668,5825 11668,6968 11033,6968 Z"/>
       <path fill="none" stroke="rgb(52,101,164)" d="M 11033,6968 L 10398,6968 10398,5825 11668,5825 11668,6968 11033,6968 Z"/>
      </g>
     </g>
     <g class="com.sun.star.drawing.CustomShape">
      <g id="id15">
       <rect class="BoundingBox" stroke="none" fill="none" x="15222" y="2776" width="1146" height="1146"/>
       <path fill="rgb(114,159,207)" stroke="none" d="M 15795,3920 L 15223,3920 15223,2777 16366,2777 16366,3920 15795,3920 Z"/>
       <path fill="none" stroke="rgb(52,101,164)" d="M 15795,3920 L 15223,3920 15223,2777 16366,2777 16366,3920 15795,3920 Z"/>
      </g>
     </g>
     <g class="com.sun.star.drawing.CustomShape">
      <g id="id16">
       <rect class="BoundingBox" stroke="none" fill="none" x="6714" y="1380" width="1019" height="1273"/>
       <path fill="rgb(114,159,207)" stroke="none" d="M 7223,2651 L 6715,2651 6715,1381 7731,1381 7731,2651 7223,2651 Z"/>
       <path fill="none" stroke="rgb(52,101,164)" d="M 7223,2651 L 6715,2651 6715,1381 7731,1381 7731,2651 7223,2651 Z"/>
      </g>
     </g>
     <g class="com.sun.star.drawing.CustomShape">
      <g id="id17">
       <rect class="BoundingBox" stroke="none" fill="none" x="2141" y="8238" width="1400" height="1273"/>
       <path fill="rgb(114,159,207)" stroke="none" d="M 2841,9509 L 2142,9509 2142,8239 3539,8239 3539,9509 2841,9509 Z"/>
       <path fill="none" stroke="rgb(52,101,164)" d="M 2841,9509 L 2142,9509 2142,8239 3539,8239 3539,9509 2841,9509 Z"/>
      </g>
     </g>
     <g class="com.sun.star.drawing.CustomShape">
      <g id="id18">
       <rect class="BoundingBox" stroke="none" fill="none" x="6714" y="10269" width="1273" height="1146"/>
       <path fill="rgb(114,159,207)" stroke="none" d="M 7350,11413 L 6715,11413 6715,10270 7985,10270 7985,11413 7350,11413 Z"/>
       <path fill="none" stroke="rgb(52,101,164)" d="M 7350,11413 L 6715,11413 6715,10270 7985,10270 7985,11413 7350,11413 Z"/>
      </g>
     </g>
     <g class="com.sun.star.drawing.CustomShape">
      <g id="id19">
       <rect class="BoundingBox" stroke="none" fill="none" x="5062" y="3792" width="1146" height="1146"/>
       <path fill="rgb(114,159,207)" stroke="none" d="M 5635,4936 L 5063,4936 5063,3793 6206,3793 6206,4936 5635,4936 Z"/>
       <path fill="none" stroke="rgb(52,101,164)" d="M 5635,4936 L 5063,4936 5063,3793 6206,3793 6206,4936 5635,4936 Z"/>
      </g>
     </g>
     <g class="com.sun.star.drawing.CustomShape">
      <g id="id20">
       <rect class="BoundingBox" stroke="none" fill="none" x="6714" y="1380" width="1019" height="1273"/>
       <path fill="rgb(114,159,207)" stroke="none" d="M 7223,2651 L 6715,2651 6715,1381 7731,1381 7731,2651 7223,2651 Z"/>
       <path fill="none" stroke="rgb(52,101,164)" d="M 7223,2651 L 6715,2651 6715,1381 7731,1381 7731,2651 7223,2651 Z"/>
      </g>
     </g>
     <g class="com.sun.star.drawing.CustomShape">
      <g id="id21">
       <rect class="BoundingBox" stroke="none" fill="none" x="6333" y="4555" width="1527" height="1273"/>
       <path fill="rgb(114,159,207)" stroke="none" d="M 7096,5826 L 6334,5826 6334,4556 7858,4556 7858,5826 7096,5826 Z"/>
       <path fill="none" stroke="rgb(52,101,164)" d="M 7096,5826 L 6334,5826 6334,4556 7858,4556 7858,5826 7096,5826 Z"/>
      </g>
     </g>
     <g class="com.sun.star.drawing.CustomShape">
      <g id="id22">
       <rect class="BoundingBox" stroke="none" fill="none" x="14715" y="7094" width="1273" height="1146"/>
       <path fill="rgb(114,159,207)" stroke="none" d="M 15351,8238 L 14716,8238 14716,7095 15986,7095 15986,8238 15351,8238 Z"/>
       <path fill="none" stroke="rgb(52,101,164)" d="M 15351,8238 L 14716,8238 14716,7095 15986,7095 15986,8238 15351,8238 Z"/>
      </g>
     </g>
     <g class="com.sun.star.drawing.CustomShape">
      <g id="id23">
       <rect class="BoundingBox" stroke="none" fill="none" x="1887" y="2140" width="1146" height="1146"/>
       <path fill="rgb(114,159,207)" stroke="none" d="M 2460,3284 L 1888,3284 1888,2141 3031,2141 3031,3284 2460,3284 Z"/>
       <path fill="none" stroke="rgb(52,101,164)" d="M 2460,3284 L 1888,3284 1888,2141 3031,2141 3031,3284 2460,3284 Z"/>
      </g>
     </g>
     <g class="com.sun.star.drawing.CustomShape">
      <g id="id24">
       <rect class="BoundingBox" stroke="none" fill="none" x="6714" y="1379" width="1019" height="1273"/>
       <path fill="rgb(114,159,207)" stroke="none" d="M 7223,2650 L 6715,2650 6715,1380 7731,1380 7731,2650 7223,2650 Z"/>
       <path fill="none" stroke="rgb(52,101,164)" d="M 7223,2650 L 6715,2650 6715,1380 7731,1380 7731,2650 7223,2650 Z"/>
      </g>
     </g>
     <g class="com.sun.star.drawing.CustomShape">
      <g id="id25">
       <rect class="BoundingBox" stroke="none" fill="none" x="4682" y="6967" width="1527" height="1273"/>
       <path fill="rgb(114,159,207)" stroke="none" d="M 5445,8238 L 4683,8238 4683,6968 6207,6968 6207,8238 5445,8238 Z"/>
       <path fill="none" stroke="rgb(52,101,164)" d="M 5445,8238 L 4683,8238 4683,6968 6207,6968 6207,8238 5445,8238 Z"/>
      </g>
     </g>
     <g class="com.sun.star.drawing.CustomShape">
      <g id="id26">
       <rect class="BoundingBox" stroke="none" fill="none" x="11286" y="8872" width="1273" height="1400"/>
       <path fill="rgb(114,159,207)" stroke="none" d="M 11922,8873 L 12557,8873 12557,10270 11287,10270 11287,8873 11922,8873 Z"/>
       <path fill="none" stroke="rgb(52,101,164)" d="M 11922,8873 L 12557,8873 12557,10270 11287,10270 11287,8873 11922,8873 Z"/>
      </g>
     </g>
     <g class="com.sun.star.drawing.CustomShape">
      <g id="id27">
       <rect class="BoundingBox" stroke="none" fill="none" x="12809" y="5188" width="1146" height="1146"/>
       <path fill="rgb(114,159,207)" stroke="none" d="M 13382,6332 L 12810,6332 12810,5189 13953,5189 13953,6332 13382,6332 Z"/>
       <path fill="none" stroke="rgb(52,101,164)" d="M 13382,6332 L 12810,6332 12810,5189 13953,5189 13953,6332 13382,6332 Z"/>
      </g>
     </g>
     <g class="com.sun.star.drawing.CustomShape">
      <g id="id28">
       <rect class="BoundingBox" stroke="none" fill="none" x="6714" y="1379" width="1019" height="1273"/>
       <path fill="rgb(114,159,207)" stroke="none" d="M 7223,2650 L 6715,2650 6715,1380 7731,1380 7731,2650 7223,2650 Z"/>
       <path fill="none" stroke="rgb(52,101,164)" d="M 7223,2650 L 6715,2650 6715,1380 7731,1380 7731,2650 7223,2650 Z"/>
      </g>
     </g>
     <g class="com.sun.star.drawing.CustomShape">
      <g id="id29">
       <rect class="BoundingBox" stroke="none" fill="none" x="1761" y="4935" width="1527" height="1273"/>
       <path fill="rgb(114,159,207)" stroke="none" d="M 2524,6206 L 1762,6206 1762,4936 3286,4936 3286,6206 2524,6206 Z"/>
       <path fill="none" stroke="rgb(52,101,164)" d="M 2524,6206 L 1762,6206 1762,4936 3286,4936 3286,6206 2524,6206 Z"/>
      </g>
     </g>
     <g class="com.sun.star.drawing.CustomShape">
      <g id="id30">
       <rect class="BoundingBox" stroke="none" fill="none" x="12683" y="10903" width="1273" height="1146"/>
       <path fill="rgb(114,159,207)" stroke="none" d="M 13319,12047 L 12684,12047 12684,10904 13954,10904 13954,12047 13319,12047 Z"/>
       <path fill="none" stroke="rgb(52,101,164)" d="M 13319,12047 L 12684,12047 12684,10904 13954,10904 13954,12047 13319,12047 Z"/>
      </g>
     </g>
     <g class="com.sun.star.drawing.CustomShape">
      <g id="id31">
       <rect class="BoundingBox" stroke="none" fill="none" x="4427" y="1378" width="1146" height="1146"/>
       <path fill="rgb(114,159,207)" stroke="none" d="M 5000,2522 L 4428,2522 4428,1379 5571,1379 5571,2522 5000,2522 Z"/>
       <path fill="none" stroke="rgb(52,101,164)" d="M 5000,2522 L 4428,2522 4428,1379 5571,1379 5571,2522 5000,2522 Z"/>
      </g>
     </g>
     <g class="com.sun.star.drawing.CustomShape">
      <g id="id32">
       <rect class="BoundingBox" stroke="none" fill="none" x="6714" y="1379" width="1019" height="1273"/>
       <path fill="rgb(114,159,207)" stroke="none" d="M 7223,2650 L 6715,2650 6715,1380 7731,1380 7731,2650 7223,2650 Z"/>
       <path fill="none" stroke="rgb(52,101,164)" d="M 7223,2650 L 6715,2650 6715,1380 7731,1380 7731,2650 7223,2650 Z"/>
      </g>
     </g>
     <g class="com.sun.star.drawing.CustomShape">
      <g id="id33">
       <rect class="BoundingBox" stroke="none" fill="none" x="11286" y="2394" width="1527" height="1400"/>
       <path fill="rgb(114,159,207)" stroke="none" d="M 12049,3792 L 11287,3792 11287,2395 12811,2395 12811,3792 12049,3792 Z"/>
       <path fill="none" stroke="rgb(52,101,164)" d="M 12049,3792 L 11287,3792 11287,2395 12811,2395 12811,3792 12049,3792 Z"/>
      </g>
     </g>
     <g class="com.sun.star.drawing.CustomShape">
      <g id="id34">
       <rect class="BoundingBox" stroke="none" fill="none" x="10397" y="5823" width="1273" height="1146"/>
       <path fill="rgb(114,159,207)" stroke="none" d="M 11033,6967 L 10398,6967 10398,5824 11668,5824 11668,6967 11033,6967 Z"/>
       <path fill="none" stroke="rgb(52,101,164)" d="M 11033,6967 L 10398,6967 10398,5824 11668,5824 11668,6967 11033,6967 Z"/>
      </g>
     </g>
     <g class="com.sun.star.drawing.CustomShape">
      <g id="id35">
       <rect class="BoundingBox" stroke="none" fill="none" x="15222" y="2775" width="1146" height="1146"/>
       <path fill="rgb(114,159,207)" stroke="none" d="M 15795,3919 L 15223,3919 15223,2776 16366,2776 16366,3919 15795,3919 Z"/>
       <path fill="none" stroke="rgb(52,101,164)" d="M 15795,3919 L 15223,3919 15223,2776 16366,2776 16366,3919 15795,3919 Z"/>
      </g>
     </g>
     <g class="com.sun.star.drawing.CustomShape">
      <g id="id36">
       <rect class="BoundingBox" stroke="none" fill="none" x="6714" y="1379" width="1019" height="1273"/>
       <path fill="rgb(114,159,207)" stroke="none" d="M 7223,2650 L 6715,2650 6715,1380 7731,1380 7731,2650 7223,2650 Z"/>
       <path fill="none" stroke="rgb(52,101,164)" d="M 7223,2650 L 6715,2650 6715,1380 7731,1380 7731,2650 7223,2650 Z"/>
      </g>
     </g>
     <g class="com.sun.star.drawing.CustomShape">
      <g id="id37">
       <rect class="BoundingBox" stroke="none" fill="none" x="2141" y="8237" width="1400" height="1273"/>
       <path fill="rgb(114,159,207)" stroke="none" d="M 2841,9508 L 2142,9508 2142,8238 3539,8238 3539,9508 2841,9508 Z"/>
       <path fill="none" stroke="rgb(52,101,164)" d="M 2841,9508 L 2142,9508 2142,8238 3539,8238 3539,9508 2841,9508 Z"/>
      </g>
     </g>
     <g class="com.sun.star.drawing.CustomShape">
      <g id="id38">
       <rect class="BoundingBox" stroke="none" fill="none" x="6714" y="10268" width="1273" height="1146"/>
       <path fill="rgb(114,159,207)" stroke="none" d="M 7350,11412 L 6715,11412 6715,10269 7985,10269 7985,11412 7350,11412 Z"/>
       <path fill="none" stroke="rgb(52,101,164)" d="M 7350,11412 L 6715,11412 6715,10269 7985,10269 7985,11412 7350,11412 Z"/>
      </g>
     </g>
     <g class="com.sun.star.drawing.CustomShape">
      <g id="id39">
       <rect class="BoundingBox" stroke="none" fill="none" x="5062" y="3791" width="1146" height="1146"/>
       <path fill="rgb(114,159,207)" stroke="none" d="M 5635,4935 L 5063,4935 5063,3792 6206,3792 6206,4935 5635,4935 Z"/>
       <path fill="none" stroke="rgb(52,101,164)" d="M 5635,4935 L 5063,4935 5063,3792 6206,3792 6206,4935 5635,4935 Z"/>
      </g>
     </g>
     <g class="com.sun.star.drawing.CustomShape">
      <g id="id40">
       <rect class="BoundingBox" stroke="none" fill="none" x="6714" y="1379" width="1019" height="1273"/>
       <path fill="rgb(114,159,207)" stroke="none" d="M 7223,2650 L 6715,2650 6715,1380 7731,1380 7731,2650 7223,2650 Z"/>
       <path fill="none" stroke="rgb(52,101,164)" d="M 7223,2650 L 6715,2650 6715,1380 7731,1380 7731,2650 7223,2650 Z"/>
      </g>
     </g>
     <g class="com.sun.star.drawing.CustomShape">
      <g id="id41">
       <rect class="BoundingBox" stroke="none" fill="none" x="6333" y="4554" width="1527" height="1273"/>
       <path fill="rgb(114,159,207)" stroke="none" d="M 7096,5825 L 6334,5825 6334,4555 7858,4555 7858,5825 7096,5825 Z"/>
       <path fill="none" stroke="rgb(52,101,164)" d="M 7096,5825 L 6334,5825 6334,4555 7858,4555 7858,5825 7096,5825 Z"/>
      </g>
     </g>
     <g class="com.sun.star.drawing.CustomShape">
      <g id="id42">
       <rect class="BoundingBox" stroke="none" fill="none" x="14715" y="7093" width="1273" height="1146"/>
       <path fill="rgb(114,159,207)" stroke="none" d="M 15351,8237 L 14716,8237 14716,7094 15986,7094 15986,8237 15351,8237 Z"/>
       <path fill="none" stroke="rgb(52,101,164)" d="M 15351,8237 L 14716,8237 14716,7094 15986,7094 15986,8237 15351,8237 Z"/>
      </g>
     </g>
     <g class="com.sun.star.drawing.CustomShape">
      <g id="id43">
       <rect class="BoundingBox" stroke="none" fill="none" x="1887" y="2140" width="1146" height="1146"/>
       <path fill="rgb(114,159,207)" stroke="none" d="M 2460,3284 L 1888,3284 1888,2141 3031,2141 3031,3284 2460,3284 Z"/>
       <path fill="none" stroke="rgb(52,101,164)" d="M 2460,3284 L 1888,3284 1888,2141 3031,2141 3031,3284 2460,3284 Z"/>
      </g>
     </g>
     <g class="com.sun.star.drawing.CustomShape">
      <g id="id44">
       <rect class="BoundingBox" stroke="none" fill="none" x="6714" y="1379" width="1019" height="1273"/>
       <path fill="rgb(114,159,207)" stroke="none" d="M 7223,2650 L 6715,2650 6715,1380 7731,1380 7731,2650 7223,2650 Z"/>
       <path fill="none" stroke="rgb(52,101,164)" d="M 7223,2650 L 6715,2650 6715,1380 7731,1380 7731,2650 7223,2650 Z"/>
      </g>
     </g>
     <g class="com.sun.star.drawing.CustomShape">
      <g id="id45">
       <rect class="BoundingBox" stroke="none" fill="none" x="4682" y="6967" width="1527" height="1273"/>
       <path fill="rgb(114,159,207)" stroke="none" d="M 5445,8238 L 4683,8238 4683,6968 6207,6968 6207,8238 5445,8238 Z"/>
       <path fill="none" stroke="rgb(52,101,164)" d="M 5445,8238 L 4683,8238 4683,6968 6207,6968 6207,8238 5445,8238 Z"/>
      </g>
     </g>
     <g class="com.sun.star.drawing.CustomShape">
      <g id="id46">
       <rect class="BoundingBox" stroke="none" fill="none" x="11286" y="8872" width="1273" height="1400"/>
       <path fill="rgb(114,159,207)" stroke="none" d="M 11922,8873 L 12557,8873 12557,10270 11287,10270 11287,8873 11922,8873 Z"/>
       <path fill="none" stroke="rgb(52,101,164)" d="M 11922,8873 L 12557,8873 12557,10270 11287,10270 11287,8873 11922,8873 Z"/>
      </g>
     </g>
     <g class="com.sun.star.drawing.CustomShape">
      <g id="id47">
       <rect class="BoundingBox" stroke="none" fill="none" x="12809" y="5188" width="1146" height="1146"/>
       <path fill="rgb(114,159,207)" stroke="none" d="M 13382,6332 L 12810,6332 12810,5189 13953,5189 13953,6332 13382,6332 Z"/>
       <path fill="none" stroke="rgb(52,101,164)" d="M 13382,6332 L 12810,6332 12810,5189 13953,5189 13953,6332 13382,6332 Z"/>
      </g>
     </g>
     <g class="com.sun.star.drawing.CustomShape">
      <g id="id48">
       <rect class="BoundingBox" stroke="none" fill="none" x="6714" y="1379" width="1019" height="1273"/>
       <path fill="rgb(114,159,207)" stroke="none" d="M 7223,2650 L 6715,2650 6715,1380 7731,1380 7731,2650 7223,2650 Z"/>
       <path fill="none" stroke="rgb(52,101,164)" d="M 7223,2650 L 6715,2650 6715,1380 7731,1380 7731,2650 7223,2650 Z"/>
      </g>
     </g>
     <g class="com.sun.star.drawing.CustomShape">
      <g id="id49">
       <rect class="BoundingBox" stroke="none" fill="none" x="1761" y="4935" width="1527" height="1273"/>
       <path fill="rgb(114,159,207)" stroke="none" d="M 2524,6206 L 1762,6206 1762,4936 3286,4936 3286,6206 2524,6206 Z"/>
       <path fill="none" stroke="rgb(52,101,164)" d="M 2524,6206 L 1762,6206 1762,4936 3286,4936 3286,6206 2524,6206 Z"/>
      </g>
     </g>
     <g class="com.sun.star.drawing.CustomShape">
      <g id="id50">
       <rect class="BoundingBox" stroke="none" fill="none" x="12683" y="10903" width="1273" height="1146"/>
       <path fill="rgb(114,159,207)" stroke="none" d="M 13319,12047 L 12684,12047 12684,10904 13954,10904 13954,12047 13319,12047 Z"/>
       <path fill="none" stroke="rgb(52,101,164)" d="M 13319,12047 L 12684,12047 12684,10904 13954,10904 13954,12047 13319,12047 Z"/>
      </g>
     </g>
     <g class="com.sun.star.drawing.CustomShape">
      <g id="id51">
       <rect class="BoundingBox" stroke="none" fill="none" x="4427" y="1378" width="1146" height="1146"/>
       <path fill="rgb(114,159,207)" stroke="none" d="M 5000,2522 L 4428,2522 4428,1379 5571,1379 5571,2522 5000,2522 Z"/>
       <path fill="none" stroke="rgb(52,101,164)" d="M 5000,2522 L 4428,2522 4428,1379 5571,1379 5571,2522 5000,2522 Z"/>
      </g>
     </g>
     <g class="com.sun.star.drawing.CustomShape">
      <g id="id52">
       <rect class="BoundingBox" stroke="none" fill="none" x="6714" y="1379" width="1019" height="1273"/>
       <path fill="rgb(114,159,207)" stroke="none" d="M 7223,2650 L 6715,2650 6715,1380 7731,1380 7731,2650 7223,2650 Z"/>
       <path fill="none" stroke="rgb(52,101,164)" d="M 7223,2650 L 6715,2650 6715,1380 7731,1380 7731,2650 7223,2650 Z"/>
      </g>
     </g>
     <g class="com.sun.star.drawing.CustomShape">
      <g id="id53">
       <rect class="BoundingBox" stroke="none" fill="none" x="11286" y="2394" width="1527" height="1400"/>
       <path fill="rgb(114,159,207)" stroke="none" d="M 12049,3792 L 11287,3792 11287,2395 12811,2395 12811,3792 12049,3792 Z"/>
       <path fill="none" stroke="rgb(52,101,164)" d="M 12049,3792 L 11287,3792 11287,2395 12811,2395 12811,3792 12049,3792 Z"/>
      </g>
     </g>
     <g class="com.sun.star.drawing.CustomShape">
      <g id="id54">
       <rect class="BoundingBox" stroke="none" fill="none" x="10397" y="5823" width="1273" height="1146"/>
       <path fill="rgb(114,159,207)" stroke="none" d="M 11033,6967 L 10398,6967 10398,5824 11668,5824 11668,6967 11033,6967 Z"/>
       <path fill="none" stroke="rgb(52,101,164)" d="M 11033,6967 L 10398,6967 10398,5824 11668,5824 11668,6967 11033,6967 Z"/>
      </g>
     </g>
     <g class="com.sun.star.drawing.CustomShape">
      <g id="id55">
       <rect class="BoundingBox" stroke="none" fill="none" x="15222" y="2775" width="1146" height="1146"/>
       <path fill="rgb(114,159,207)" stroke="none" d="M 15795,3919 L 15223,3919 15223,2776 16366,2776 16366,3919 15795,3919 Z"/>
       <path fill="none" stroke="rgb(52,101,164)" d="M 15795,3919 L 15223,3919 15223,2776 16366,2776 16366,3919 15795,3919 Z"/>
      </g>
     </g>
     <g class="com.sun.star.drawing.CustomShape">
      <g id="id56">
       <rect class="BoundingBox" stroke="none" fill="none" x="6714" y="1379" width="1019" height="1273"/>
       <path fill="rgb(114,159,207)" stroke="none" d="M 7223,2650 L 6715,2650 6715,1380 7731,1380 7731,2650 7223,2650 Z"/>
       <path fill="none" stroke="rgb(52,101,164)" d="M 7223,2650 L 6715,2650 6715,1380 7731,1380 7731,2650 7223,2650 Z"/>
      </g>
     </g>
     <g class="com.sun.star.drawing.CustomShape">
      <g id="id57">
       <rect class="BoundingBox" stroke="none" fill="none" x="2141" y="8237" width="1400" height="1273"/>
       <path fill="rgb(114,159,207)" stroke="none" d="M 2841,9508 L 2142,9508 2142,8238 3539,8238 3539,9508 2841,9508 Z"/>
       <path fill="none" stroke="rgb(52,101,164)" d="M 2841,9508 L 2142,9508 2142,8238 3539,8238 3539,9508 2841,9508 Z"/>
      </g>
     </g>
     <g class="com.sun.star.drawing.CustomShape">
      <g id="id58">
       <rect class="BoundingBox" stroke="none" fill="none" x="6714" y="10268" width="1273" height="1146"/>
       <path fill="rgb(114,159,207)" stroke="none" d="M 7350,11412 L 6715,11412 6715,10269 7985,10269 7985,11412 7350,11412 Z"/>
       <path fill="none" stroke="rgb(52,101,164)" d="M 7350,11412 L 6715,11412 6715,10269 7985,10269 7985,11412 7350,11412 Z"/>
      </g>
     </g>
     <g class="com.sun.star.drawing.CustomShape">
      <g id="id59">
       <rect class="BoundingBox" stroke="none" fill="none" x="5062" y="3791" width="1146" height="1146"/>
       <path fill="rgb(114,159,207)" stroke="none" d="M 5635,4935 L 5063,4935 5063,3792 6206,3792 6206,4935 5635,4935 Z"/>
       <path fill="none" stroke="rgb(52,101,164)" d="M 5635,4935 L 5063,4935 5063,3792 6206,3792 6206,4935 5635,4935 Z"/>
      </g>
     </g>
     <g class="com.sun.star.drawing.CustomShape">
      <g id="id60">
       <rect class="BoundingBox" stroke="none" fill="none" x="6714" y="1379" width="1019" height="1273"/>
       <path fill="rgb(114,159,207)" stroke="none" d="M 7223,2650 L 6715,2650 6715,1380 7731,1380 7731,2650 7223,2650 Z"/>
       <path fill="none" stroke="rgb(52,101,164)" d="M 7223,2650 L 6715,2650 6715,1380 7731,1380 7731,2650 7223,2650 Z"/>
      </g>
     </g>
     <g class="com.sun.star.drawing.CustomShape">
      <g id="id61">
       <rect class="BoundingBox" stroke="none" fill="none" x="6333" y="4554" width="1527" height="1273"/>
       <path fill="rgb(114,159,207)" stroke="none" d="M 7096,5825 L 6334,5825 6334,4555 7858,4555 7858,5825 7096,5825 Z"/>
       <path fill="none" stroke="rgb(52,101,164)" d="M 7096,5825 L 6334,5825 6334,4555 7858,4555 7858,5825 7096,5825 Z"/>
      </g>
     </g>
     <g class="com.sun.star.drawing.CustomShape">
      <g id="id62">
       <rect class="BoundingBox" stroke="none" fill="none" x="14715" y="7093" width="1273" height="1146"/>
       <path fill="rgb(114,159,207)" stroke="none" d="M 15351,8237 L 14716,8237 14716,7094 15986,7094 15986,8237 15351,8237 Z"/>
       <path fill="none" stroke="rgb(52,101,164)" d="M 15351,8237 L 14716,8237 14716,7094 15986,7094 15986,8237 15351,8237 Z"/>
      </g>
     </g>
     <g class="com.sun.star.drawing.CustomShape">
      <g id="id63">
       <rect class="BoundingBox" stroke="none" fill="none" x="1887" y="2140" width="1146" height="1146"/>
       <path fill="rgb(114,159,207)" stroke="none" d="M 2460,3284 L 1888,3284 1888,2141 3031,2141 3031,3284 2460,3284 Z"/>
       <path fill="none" stroke="rgb(52,101,164)" d="M 2460,3284 L 1888,3284 1888,2141 3031,2141 3031,3284 2460,3284 Z"/>
      </g>
     </g>
     <g class="com.sun.star.drawing.CustomShape">
      <g id="id64">
       <rect class="BoundingBox" stroke="none" fill="none" x="6714" y="1379" width="1019" height="1273"/>
       <path fill="rgb(114,159,207)" stroke="none" d="M 7223,2650 L 6715,2650 6715,1380 7731,1380 7731,2650 7223,2650 Z"/>
       <path fill="none" stroke="rgb(52,101,164)" d="M 7223,2650 L 6715,2650 6715,1380 7731,1380 7731,2650 7223,2650 Z"/>
      </g>
     </g>
     <g class="com.sun.star.drawing.CustomShape">
      <g id="id65">
       <rect class="BoundingBox" stroke="none" fill="none" x="4682" y="6967" width="1527" height="1273"/>
       <path fill="rgb(114,159,207)" stroke="none" d="M 5445,8238 L 4683,8238 4683,6968 6207,6968 6207,8238 5445,8238 Z"/>
       <path fill="none" stroke="rgb(52,101,164)" d="M 5445,8238 L 4683,8238 4683,6968 6207,6968 6207,8238 5445,8238 Z"/>
      </g>
     </g>
     <g class="com.sun.star.drawing.CustomShape">
      <g id="id66">
       <rect class="BoundingBox" stroke="none" fill="none" x="11286" y="8872" width="1273" height="1400"/>
       <path fill="rgb(114,159,207)" stroke="none" d="M 11922,8873 L 12557,8873 12557,10270 11287,10270 11287,8873 11922,8873 Z"/>
       <path fill="none" stroke="rgb(52,101,164)" d="M 11922,8873 L 12557,8873 12557,10270 11287,10270 11287,8873 11922,8873 Z"/>
      </g>
     </g>
     <g class="com.sun.star.drawing.CustomShape">
      <g id="id67">
       <rect class="BoundingBox" stroke="none" fill="none" x="12809" y="5188" width="1146" height="1146"/>
       <path fill="rgb(114,159,207)" stroke="none" d="M 13382,6332 L 12810,6332 12810,5189 13953,5189 13953,6332 13382,6332 Z"/>
       <path fill="none" stroke="rgb(52,101,164)" d="M 13382,6332 L 12810,6332 12810,5189 13953,5189 13953,6332 13382,6332 Z"/>
      </g>
     </g>
     <g class="com.sun.star.drawing.CustomShape">
      <g id="id68">
       <rect class="BoundingBox" stroke="none" fill="none" x="6714" y="1379" width="1019" height="1273"/>
       <path fill="rgb(114,159,207)" stroke="none" d="M 7223,2650 L 6715,2650 6715,1380 7731,1380 7731,2650 7223,2650 Z"/>
       <path fill="none" stroke="rgb(52,101,164)" d="M 7223,2650 L 6715,2650 6715,1380 7731,1380 7731,2650 7223,2650 Z"/>
      </g>
     </g>
     <g class="com.sun.star.drawing.CustomShape">
      <g id="id69">
       <rect class="BoundingBox" stroke="none" fill="none" x="1761" y="4935" width="1527" height="1273"/>
       <path fill="rgb(114,159,207)" stroke="none" d="M 2524,6206 L 1762,6206 1762,4936 3286,4936 3286,6206 2524,6206 Z"/>
       <path fill="none" stroke="rgb(52,101,164)" d="M 2524,6206 L 1762,6206 1762,4936 3286,4936 3286,6206 2524,6206 Z"/>
      </g>
     </g>
     <g class="com.sun.star.drawing.CustomShape">
      <g id="id70">
       <rect class="BoundingBox" stroke="none" fill="none" x="12683" y="10903" width="1273" height="1146"/>
       <path fill="rgb(114,159,207)" stroke="none" d="M 13319,12047 L 12684,12047 12684,10904 13954,10904 13954,12047 13319,12047 Z"/>
       <path fill="none" stroke="rgb(52,101,164)" d="M 13319,12047 L 12684,12047 12684,10904 13954,10904 13954,12047 13319,12047 Z"/>
      </g>
     </g>
     <g class="com.sun.star.drawing.CustomShape">
      <g id="id71">
       <rect class="BoundingBox" stroke="none" fill="none" x="4427" y="1378" width="1146" height="1146"/>
       <path fill="rgb(114,159,207)" stroke="none" d="M 5000,2522 L 4428,2522 4428,1379 5571,1379 5571,2522 5000,2522 Z"/>
       <path fill="none" stroke="rgb(52,101,164)" d="M 5000,2522 L 4428,2522 4428,1379 5571,1379 5571,2522 5000,2522 Z"/>
      </g>
     </g>
     <g class="com.sun.star.drawing.CustomShape">
      <g id="id72">
       <rect class="BoundingBox" stroke="none" fill="none" x="6714" y="1379" width="1019" height="1273"/>
       <path fill="rgb(114,159,207)" stroke="none" d="M 7223,2650 L 6715,2650 6715,1380 7731,1380 7731,2650 7223,2650 Z"/>
       <path fill="none" stroke="rgb(52,101,164)" d="M 7223,2650 L 6715,2650 6715,1380 7731,1380 7731,2650 7223,2650 Z"/>
      </g>
     </g>
     <g class="com.sun.star.drawing.CustomShape">
      <g id="id73">
       <rect class="BoundingBox" stroke="none" fill="none" x="11286" y="2394" width="1527" height="1400"/>
       <path fill="rgb(114,159,207)" stroke="none" d="M 12049,3792 L 11287,3792 11287,2395 12811,2395 12811,3792 12049,3792 Z"/>
       <path fill="none" stroke="rgb(52,101,164)" d="M 12049,3792 L 11287,3792 11287,2395 12811,2395 12811,3792 12049,3792 Z"/>
      </g>
     </g>
     <g class="com.sun.star.drawing.CustomShape">
      <g id="id74">
       <rect class="BoundingBox" stroke="none" fill="none" x="10397" y="5823" width="1273" height="1146"/>
       <path fill="rgb(114,159,207)" stroke="none" d="M 11033,6967 L 10398,6967 10398,5824 11668,5824 11668,6967 11033,6967 Z"/>
       <path fill="none" stroke="rgb(52,101,164)" d="M 11033,6967 L 10398,6967 10398,5824 11668,5824 11668,6967 11033,6967 Z"/>
      </g>
     </g>
     <g class="com.sun.star.drawing.CustomShape">
      <g id="id75">
       <rect class="BoundingBox" stroke="none" fill="none" x="15222" y="2775" width="1146" height="1146"/>
       <path fill="rgb(114,159,207)" stroke="none" d="M 15795,3919 L 15223,3919 15223,2776 16366,2776 16366,3919 15795,3919 Z"/>
       <path fill="none" stroke="rgb(52,101,164)" d="M 15795,3919 L 15223,3919 15223,2776 16366,2776 16366,3919 15795,3919 Z"/>
      </g>
     </g>
     <g class="com.sun.star.drawing.CustomShape">
      <g id="id76">
       <rect class="BoundingBox" stroke="none" fill="none" x="6714" y="1379" width="1019" height="1273"/>
       <path fill="rgb(114,159,207)" stroke="none" d="M 7223,2650 L 6715,2650 6715,1380 7731,1380 7731,2650 7223,2650 Z"/>
       <path fill="none" stroke="rgb(52,101,164)" d="M 7223,2650 L 6715,2650 6715,1380 7731,1380 7731,2650 7223,2650 Z"/>
      </g>
     </g>
     <g class="com.sun.star.drawing.CustomShape">
      <g id="id77">
       <rect class="BoundingBox" stroke="none" fill="none" x="2141" y="8237" width="1400" height="1273"/>
       <path fill="rgb(114,159,207)" stroke="none" d="M 2841,9508 L 2142,9508 2142,8238 3539,8238 3539,9508 2841,9508 Z"/>
       <path fill="none" stroke="rgb(52,101,164)" d="M 2841,9508 L 2142,9508 2142,8238 3539,8238 3539,9508 2841,9508 Z"/>
      </g>
     </g>
     <g class="com.sun.star.drawing.CustomShape">
      <g id="id78">
       <rect class="BoundingBox" stroke="none" fill="none" x="6714" y="10268" width="1273" height="1146"/>
       <path fill="rgb(114,159,207)" stroke="none" d="M 7350,11412 L 6715,11412 6715,10269 7985,10269 7985,11412 7350,11412 Z"/>
       <path fill="none" stroke="rgb(52,101,164)" d="M 7350,11412 L 6715,11412 6715,10269 7985,10269 7985,11412 7350,11412 Z"/>
      </g>
     </g>
     <g class="com.sun.star.drawing.CustomShape">
      <g id="id79">
       <rect class="BoundingBox" stroke="none" fill="none" x="5062" y="3791" width="1146" height="1146"/>
       <path fill="rgb(114,159,207)" stroke="none" d="M 5635,4935 L 5063,4935 5063,3792 6206,3792 6206,4935 5635,4935 Z"/>
       <path fill="none" stroke="rgb(52,101,164)" d="M 5635,4935 L 5063,4935 5063,3792 6206,3792 6206,4935 5635,4935 Z"/>
      </g>
     </g>
     <g class="com.sun.star.drawing.CustomShape">
      <g id="id80">
       <rect class="BoundingBox" stroke="none" fill="none" x="6714" y="1379" width="1019" height="1273"/>
       <path fill="rgb(114,159,207)" stroke="none" d="M 7223,2650 L 6715,2650 6715,1380 7731,1380 7731,2650 7223,2650 Z"/>
       <path fill="none" stroke="rgb(52,101,164)" d="M 7223,2650 L 6715,2650 6715,1380 7731,1380 7731,2650 7223,2650 Z"/>
      </g>
     </g>
     <g class="com.sun.star.drawing.CustomShape">
      <g id="id81">
       <rect class="BoundingBox" stroke="none" fill="none" x="6333" y="4554" width="1527" height="1273"/>
       <path fill="rgb(114,159,207)" stroke="none" d="M 7096,5825 L 6334,5825 6334,4555 7858,4555 7858,5825 7096,5825 Z"/>
       <path fill="none" stroke="rgb(52,101,164)" d="M 7096,5825 L 6334,5825 6334,4555 7858,4555 7858,5825 7096,5825 Z"/>
      </g>
     </g>
     <g class="com.sun.star.drawing.CustomShape">
      <g id="id82">
       <rect class="BoundingBox" stroke="none" fill="none" x="14715" y="7093" width="1273" height="1146"/>
       <path fill="rgb(114,159,207)" stroke="none" d="M 15351,8237 L 14716,8237 14716,7094 15986,7094 15986,8237 15351,8237 Z"/>
       <path fill="none" stroke="rgb(52,101,164)" d="M 15351,8237 L 14716,8237 14716,7094 15986,7094 15986,8237 15351,8237 Z"/>
      </g>
     </g>
    </g>
   </g>
  </g>
 </g>
</svg>